<svg xmlns="http://www.w3.org/2000/svg" width="510.6" height="510.6" viewBox="0 0 510.6 510.6"><style type="text/css">.st0{fill:#1976D2;}</style><path class="st0" d="M437.7 134.5h-.6c-1.5 0-3 .6-4.1 1.7l-10 10c-2 2-2.3 5-.8 7.3 54.4 84.7 42.3 197.7-28.7 268.6-40.8 40.6-95 63-152.5 63-57.7 0-111.9-22.4-152.7-62.9-40.6-40.8-63-95-63-152.5 0-57.9 22.4-112.2 63.1-152.7 40.8-40.6 94.9-63 152.3-63 43.3 0 85 12.7 120.5 36.7 1 .7 2.1 1 3.3 1 1.5 0 3-.6 4.2-1.7l9.8-9.8c.5-.5 1-1.1 1.3-1.8 1.2-2.8.2-5.7-2.1-7.3-40.1-27.4-88.7-42.5-137-42.5-64.3 0-124.8 25-170.2 70.5-45.5 45.6-70.5 106.1-70.5 170.5s25 125 70.5 170.4c45.5 45.5 106 70.5 170.4 70.5 64.2 0 124.8-25 170.4-70.5 40.9-40.9 65.7-95.4 69.7-153.3 3.6-53.5-9.9-105.2-39.1-149.7-.9-1.4-2.4-2.3-4.2-2.5zM509.5 42.4c-1.1-1.6-3.1-2.5-5-2.5h-28.9c-2.7 0-4.9-2.2-4.9-4.9v-28.9c0-2.2-1.1-4.4-3.1-5.4-.9-.5-1.9-.7-2.8-.7-1.5 0-3 .6-4.2 1.7l-29.5 29.5c-.8.8-1.3 1.7-1.5 2.7l-9.2 37.3c0 .1 0 .2-.1.3-.1.6-.6 1.3-1.1 1.9l-15.1 15.1-58.4 57.8-61.1 61.1-.2.2c-1 1.1-2.4 1.2-3.1 1.2-.7 0-1.7-.5-2.6-1-11.4-6.9-24.5-10.6-37.9-10.6-19.1 0-37.1 7.5-50.7 21.2-13.7 13.7-21.2 31.7-21.2 50.9s7.5 37.3 21.2 50.9c13.7 13.7 31.7 21.2 50.9 21.2 19.3 0 37.3-7.5 50.7-21.2 11.4-11.4 18.7-26.5 20.6-42.6 1.9-16.1-1.9-32.5-10.5-46.2-1-1.9-.7-4.4.7-5.8l134.5-134.2c.7-.6 1.5-1.2 2.1-1.3.1 0 .2 0 .2-.1l37.3-9c1-.3 2-.8 2.8-1.6l29.5-29.5c1.9-2 2.3-5.1.6-7.5zM240.7 135.4c21.8 0 43.4 5.2 62.4 15.1.9.4 1.8.7 2.7.7 1.5 0 3-.6 4.2-1.7l9.7-9.7c.7-.7 1.2-1.5 1.5-2.4.9-2.8-.4-5.6-2.8-6.9-23.8-13.2-50.8-20.2-78.1-20.2-48 0-93 21.4-123.7 58.8-47.1 57.7-47.6 141.9-1.2 200.2 30.8 38.5 76.5 60.6 125.5 60.6 42.8 0 82.8-16.5 112.6-46.3 26.2-26 42.1-59.2 45.7-95.9 3.2-30.4-2.8-62.3-16.9-90-.9-1.7-2.5-2.8-4.3-3.1l-.9-.1c-1.5 0-3 .6-4.2 1.7l-9.8 9.8c-1.8 1.8-2.2 4.4-1.2 6.7 25.7 54.3 13.1 117.6-31.4 157.6-24.4 22-56.3 34.1-89.8 34.1-33.7 0-65.7-12.2-90.2-34.5-27.6-25-43.3-59.3-44.3-96.6-.8-37.5 13.3-72.4 39.6-98.5 25.3-25.5 59-39.4 94.9-39.4z"/></svg>