<svg xmlns="http://www.w3.org/2000/svg" width="512" height="512" viewBox="0 0 512 512"><style type="text/css">.st0{fill:#1976D2;}</style><path class="st0" d="M255.9 444.1c43.1 0 83.6-16.7 113.9-47.1 2.2-2.2 3.4-5.1 3.4-8.2s-1.2-6-3.4-8.2c-2.2-2.2-5.1-3.4-8.2-3.4-3.1 0-6 1.2-8.2 3.4-26 26-60.7 40.4-97.6 40.4s-71.6-14.3-97.6-40.4c-2.2-2.2-5.1-3.4-8.2-3.4-3.1 0-6 1.2-8.2 3.4-2.2 2.2-3.4 5.1-3.4 8.2 0 3.1 1.2 6 3.4 8.2 30.6 30.4 71 47.1 114.1 47.1zM440.1 252.6v-158.4c0-21.4-10.7-41.3-28.5-53.1-10.5-7-22.7-10.6-35.2-10.6-7 0-13.9 1.1-20.5 3.4l-59.4-20.2c-25.7-8.7-52.3-13.2-78.9-13.2-21.3 0-42.4 2.9-62.8 8.5-60.5 16.7-95.4 52-101 102.3-4.7 6.3-8.4 13.3-10.9 20.8l-4.7 13.8c-2.8 8.3.3 17 7.7 21.7 3 1.9 6.5 2.9 10 2.9 4.8 0 9.3-1.9 12.9-5.3.9-.9 1.8-1.7 2.9-2.4v89.9c-25.3 5.4-43.5 27.8-43.5 53.8 0 27.2 20 50.4 46.8 54.4 6.9 36.4 24.3 69.6 50.5 96.1 34.8 35.3 81.2 54.8 130.4 54.8s95.5-19.2 130.2-54c26.7-26.7 44.3-60.2 51-97 26.6-4.2 46.5-27.3 46.5-54.4 0-26-18.2-48.4-43.5-53.8zm20.4 53.8c0 13.3-8.3 25.2-20.6 29.9.1-3 .2-5.9.2-8.7v-50.9c12.2 4.7 20.4 16.6 20.4 29.7zm-388.8-29.7v49.1c0 3.5.1 7 .3 10.6-12.3-4.6-20.7-16.6-20.7-29.9 0-13.2 8.2-25.1 20.4-29.8zm-6.9-137.3c4.7-13.9 15.1-25.2 28.6-30.9 6.4-2.8 13.3-4.2 20.3-4.2 7.5 0 15 1.7 21.8 4.8 9.8 4.6 20.4 6.9 31.3 6.9 21.6 0 42.1-9.2 56.2-25.1l2.4-2.7c2-2.3 3.1-5.3 2.9-8.4-.2-3.1-1.6-5.9-3.9-7.9-2.1-1.9-4.8-2.9-7.6-2.9-3.3 0-6.5 1.4-8.7 3.9l-2.4 2.7c-9.8 11-23.9 17.4-38.8 17.4-7.6 0-14.8-1.6-21.6-4.8-9.8-4.6-20.7-7-31.5-7-10.2 0-20.1 2-29.4 6l-.5.2c11.9-26.5 37.8-45.4 77.1-56.3 18.4-5.1 37.5-7.7 56.6-7.7 24.1 0 48.1 4 71.4 11.9l55.6 18.9.7 47.4c-25 33.8-61.5 56.7-102.9 64.5-10.4 2-21 3-31.5 3-32.3 0-63.8-9.4-91-27.2-8.9-5.8-19.1-8.9-29.6-8.9-9 0-17.8 2.2-25.6 6.5l.1-.1zm30 17.3c4.5.6 8.8 2.3 12.6 4.8 31 20.2 66.8 30.9 103.6 30.9 12 0 24-1.1 35.8-3.4 37.7-7.2 71.7-25.1 98.6-52v21.1c0 41.6 30.7 76.7 71.6 82.4v87.1c0 43-16.8 83.5-47.2 113.9-30.4 30.4-70.9 47.2-113.9 47.2s-83.5-17-114-47.9c-30.4-30.8-47.1-71.7-47.1-115v-169.1zm281.7-103.2c7.9 0 15.6 2.4 22.3 6.9 11.6 7.7 18.2 20 18.2 33.9v122.7c-27.8-5.5-48.5-30.4-48.5-59l-.8-103.6c2.9-.6 5.9-.9 8.8-.9zM156.8 298.1c4.1 0 8 1.6 11 4.5 2.2 2.2 5.1 3.4 8.2 3.4 3.1 0 6-1.2 8.2-3.4 4.5-4.5 4.5-11.8 0-16.3-7.3-7.3-17-11.3-27.3-11.3s-20 4-27.3 11.3c-2.2 2.2-3.4 5.1-3.4 8.2s1.2 6 3.4 8.2c2.2 2.2 5.1 3.4 8.2 3.4 3.1 0 6-1.2 8.2-3.4 2.8-3 6.7-4.6 10.8-4.6zM335.8 306c3.1 0 6-1.2 8.2-3.4 2.9-2.9 6.8-4.5 11-4.5 4.1 0 8 1.6 11 4.5 2.2 2.2 5.1 3.4 8.2 3.4s6-1.2 8.2-3.4c2.2-2.2 3.4-5.1 3.4-8.2 0-3.1-1.2-6-3.4-8.2-7.4-7.2-17.1-11.2-27.4-11.2-10.3 0-20 4-27.3 11.3-2.2 2.2-3.4 5.1-3.4 8.2s1.2 6 3.4 8.2c2.1 2.1 5 3.3 8.1 3.3z"/></svg>