<svg xmlns="http://www.w3.org/2000/svg" width="512" height="512" viewBox="0 0 512 512"><style type="text/css">.st0{fill:#1976D2;}</style><path class="st0" d="M56.5 371.6c-20.3-35-31-75.1-31-115.8 0-61.9 24.1-120 67.8-163.8 43.8-43.8 101.9-67.8 163.8-67.8 59.6 0 115.6 22.2 158.6 62.9h-19.4c-6.7 0-12.1 5.4-12.1 12.1 0 6.7 5.4 12.1 12.1 12.1h52.2c6.7 0 12.1-5.4 12.1-12.1v-52.3c0-1.7-.4-3.3-1-4.8-.7-3.6-3.7-6.3-7.3-6.7-1.2-.4-2.5-.6-3.8-.6-6.7 0-12.1 5.4-12.1 12.1v26.5c-22.4-22.2-48.5-39.8-77.7-52.4-32.1-13.9-66.3-21-101.5-21h-.2c-68.4 0-132.7 26.6-181 75s-75 112.6-75 181c0 45 11.8 89.3 34.2 128 .8 1.4 1.9 2.4 3.3 3.1 2.1 1.7 4.8 2.6 7.5 2.6 2.1 0 4.2-.6 6-1.6 5.9-3.3 7.8-10.7 4.5-16.5zM257.2 69.6c-102.7 0-186.2 83.6-186.2 186.2 0 102.7 83.5 186.2 186.2 186.2 102.7 0 186.2-83.5 186.2-186.2s-83.6-186.2-186.2-186.2zm12.1 347.8v-13.6c0-6.7-5.4-12.1-12.1-12.1-6.7 0-12.1 5.4-12.1 12.1v13.6c-80.3-5.9-143.6-69.2-149.5-149.5h13.6c6.7 0 12.1-5.4 12.1-12.1 0-6.7-5.4-12.1-12.1-12.1h-13.6c5.9-80.3 69.2-143.6 149.5-149.5v13.6c0 6.7 5.4 12.1 12.1 12.1 6.7 0 12.1-5.4 12.1-12.1v-13.5c80.3 5.9 143.6 69.2 149.5 149.5h-13.6c-6.7 0-12.1 5.4-12.1 12.1 0 6.7 5.4 12.1 12.1 12.1h13.6c-6 80.2-69.2 143.5-149.5 149.4zM513 255.8c0-45-11.8-89.2-34.2-127.9-2.2-3.7-6.2-6-10.5-6-2.1 0-4.2.6-6.1 1.6-5.8 3.3-7.8 10.8-4.4 16.5 20.3 35 31 75.1 31 115.8 0 61.9-24.1 120-67.8 163.8-43.8 43.8-101.9 67.8-163.8 67.8-59.6 0-115.5-22.2-158.6-62.9h19.4c6.7 0 12.1-5.4 12.1-12.1 0-6.7-5.4-12.1-12.1-12.1h-52.3c-6.7 0-12.1 5.4-12.1 12.1v52.2c0 1.2.2 2.4.5 3.5v.1c0 4.6 3.7 8.3 8.3 8.3h.8c.8.2 1.7.3 2.5.3 6.7 0 12.1-5.4 12.1-12.1v-26c47.6 46.8 111.7 73.3 179.2 73.3 68.4 0 132.7-26.6 181-75s75-112.6 75-181v-.2zM361.6 243.7h-68.2c-.6-1.7-1.3-3.4-2.1-5l74.5-74.5c4.7-4.7 4.7-12.4 0-17.1-2.3-2.3-5.3-3.5-8.6-3.5-3.2 0-6.3 1.3-8.6 3.5l-74.5 74.5c-5.3-2.6-11.1-4-17.1-4-16.6 0-31.1 10.6-36.2 26.1h-16c-6.7 0-12.1 5.4-12.1 12.1 0 6.7 5.4 12.1 12.1 12.1h16c.6 1.7 1.3 3.4 2.1 5l-17.9 17.9c-4.7 4.7-4.7 12.4 0 17.1 2.3 2.3 5.3 3.5 8.6 3.5s6.3-1.3 8.6-3.5l17.9-17.9c5.3 2.6 11.1 4 17.1 4 16.6 0 31.1-10.6 36.2-26.1h68.2c6.7 0 12.1-5.4 12.1-12.1 0-6.6-5.4-12.1-12.1-12.1zm-104.4 26.2c-7.7 0-14-6.3-14-14s6.3-14 14-14 14 6.3 14 14-6.3 14-14 14z"/></svg>