<svg xmlns="http://www.w3.org/2000/svg" width="512" height="512" viewBox="0 0 512 512"><style type="text/css">.st0{fill:#1976D2;}</style><path class="st0" d="M74.8 194.5c6.8 6.5 13.6 12.2 15.1 13.3 1.8 1.6 4.2 2.4 6.7 2.4 1 0 2-.1 3-.4l.3-.1c3.2-1.3 5.6-3.9 6.5-6.8 0-.1 2.9-9 5.5-19.4 4.8-19.7 4-27.6 2.8-32.3v-.1c-3.8-12.5-14.8-20.6-28.2-20.6-3.3 0-6.6.5-10 1.5-8.2 2.5-14.7 7.3-18.6 13.8-4.3 6.9-5.4 15.2-2.9 23.1 1.2 4.1 4.6 11.2 19.8 25.6zm19.8-37.5c.7 2.4-.3 11.4-3.5 23.9-10.2-9.6-15.4-16-16-18.3-.7-2.3-.5-4.3.7-6.1 1.4-2.2 3.8-3.8 6.7-4.6h.1c1.4-.4 2.7-.6 4-.6 2.9.1 6.6 1.1 8 5.7zM507.3 306.6l-27.9-28c-.5-.5-.9-.9-1.6-1.4-.2-.2-.3-.4-.4-.6-.1-.1-.3-.4-.3-.4l-185.9-216c-2.2-2.6-5.5-4.1-9-4.3h-.5c-3.3 0-6.5 1.3-8.7 3.6-2.8 2.7-8 7.7-3.4 15.6l.3.5 180.8 208.1-108.1 108.2-196.8-170c5.9-3.9 15.3-9.2 26.8-12.1 3.7-.7 7.6-1 11.8-1 15 0 31.3 4.4 47 8.7l.2.1c10.9 3 22.1 6.1 33.2 7.8 9.7 1.4 18.8 2.1 27.1 2.1 13.9 0 26.2-2 36.4-5.9 6.3-2.5 9.5-9.7 7-16-1.9-4.8-6.4-7.8-11.5-7.8-1.5 0-3.1.3-4.5.9-7.4 2.9-16.6 4.3-27.4 4.3-7.1 0-15.1-.6-23.5-1.9-8.6-1.3-17.7-3.8-27.4-6.4l-2.9-.8-.8-.2c-17.2-4.7-34.9-9.5-52.8-9.5-6 0-11.6.5-17.1 1.6l-.5.1c-28.6 7.2-47.2 25.2-47.3 25.3-2.1 1.9-3.3 4.4-3.7 7.2-.7 1.8-1 3.5-.9 5.2.1 3.5 1.7 6.8 4.2 9l215.9 185.7c.3.3.7.6 1 .8.4.5.8 1 1.4 1.6l28 28c2.3 2.3 5.4 3.6 8.8 3.6s6.5-1.3 8.8-3.6l124.4-124.4.1-.1c4.6-5.1 4.4-13-.3-17.6zm-36.6-1.8l10.5 10.5-106.9 106.8-10.5-10.5 106.9-106.8zM31.3 225.2c1.5.6 4.1 1.3 9 1.3 3.5 0 8-.4 13.1-1.2 6.3-.9 12.1-2.2 13.4-2.6 2.5-.6 4.6-2.4 5.6-4.8 0-.1 0-.1.1-.2.9-2.6.5-5.3-1-7.3-1-1.5-4.3-6.2-8-10.8-8.8-11.1-13.3-13.8-16.3-14.9-2.4-.9-4.9-1.4-7.4-1.4-8.5 0-16.1 5.5-19.6 14.1-2.2 5.4-2.3 11.1-.4 16.2 2 5.4 6.1 9.5 11.5 11.6zm3.5-17.1c-.4-1.3-.3-3.1.3-4.7.8-2 2.4-4.1 4.5-4.1.5 0 1.1.1 1.7.4 1 .4 4.3 3.3 9.5 9.9-4.3.6-8 .9-10.7.9-2.2 0-2.9-.2-2.9-.2-1.2-.4-1.9-1.1-2.4-2.2zM120.7 250.5c-8.6-6.6-16.3-11.8-16.4-11.8-1.8-1.2-3.8-1.8-5.8-1.8-1.4 0-2.7.3-4 .8h-.1c-3.2 1.5-5.4 4.2-6.1 7.4-.3 1.2-2.2 10-3.5 19.9-2.8 20.3-1.3 28 .4 32.4 4.5 11 14.9 17.9 27.1 17.9 4.3 0 8.6-.9 12.8-2.5 7.8-3.1 14-8.6 17.3-15.4 3.6-7.2 3.8-15.4.7-23.3-1.8-4-6-10.8-22.4-23.6zm-3.8 43.1c-1.7.7-3.5 1.1-5.2 1.1-3.6 0-6-1.6-7.3-4.9-.9-2.2-.8-10.5 1.3-24.2 10.3 7.8 16.7 14.2 17.7 16.6.9 2.2.8 4.2-.1 6-1.2 2.3-3.4 4.2-6.4 5.4zM86.9 240c1.1-3.6.3-7.6-2.1-10.7-2.2-2.8-5.8-4.6-9.6-4.6h-.4c-1.2.1-11.7.7-24 2.4-24.3 3.3-32.4 7.5-36.7 10.8-7.1 5.5-11.6 13.2-12.6 21.7-1.1 9.4 1.9 19 8.5 27.2 6 7.4 14.3 12.4 23.2 14.1 1.9.3 3.9.5 5.9.5 7.4 0 14.5-2.5 20.5-7.1 4-3.1 10.4-9.9 19.3-32.2 4.5-10.9 7.6-20.8 8-22.1zm-42 35.7c-1.9 1.5-3.8 2.2-5.9 2.2-.5 0-1.1 0-1.7-.1-3-.5-6.1-2.4-8.6-5.4-2.6-3.2-3.9-6.8-3.6-9.8.3-2.3 1.5-4.3 3.6-6 2.5-1.9 13.2-4.7 29.3-6.7-5.5 14.6-10.7 23.9-13.1 25.8z"/></svg>