<svg xmlns="http://www.w3.org/2000/svg" width="512" height="512" viewBox="0 0 512 512"><style type="text/css">.st0{fill:#1976D2;}</style><path class="st0" d="M199.5 313.3l-64.1-79.8c-2.3-2.8-5.6-4.3-9.1-4.3-2.7 0-5.3.9-7.3 2.6-2.2 1.8-3.6 4.2-4.1 6.8-1.3 2.7-1.1 6 .9 8.5l73 91c1.2 1.6 3 2.6 5 2.9.8.3 1.7.5 2.7.7h1.4c2.8 0 5.5-1 7.5-2.7l187.9-155.6c5-4.1 5.7-11.6 1.6-16.6-2.2-2.7-5.6-4.3-9.1-4.3-2.7 0-5.4.9-7.5 2.7l-178.8 148.1zM500.5 228.3l-.3-.4c-2.7-3.5-6.3-8.3-6.8-11.1.4-3.1 1.8-7.4 3.1-10.9 2.8-8.1 6.3-18.3 3.1-28.1-3.2-9.9-11.9-16.1-18.9-21l-1.1-.8c-3.8-2.7-8.1-5.7-9.2-8-1.3-2.6-1.2-8.3-1.1-13.3v-.4c.1-9 .2-19.1-5.8-27.4-6-8.3-15.6-11.3-24.1-14l-.6-.2c-4.3-1.3-10.2-3.1-12.3-5.1-2-2-3.5-7.2-4.9-11.8l-.1-.5c-2.5-8.3-5.6-18.5-14.2-24.7-7-5.2-15.6-5.9-23.9-5.9h-7.8c-1.9 0-7.1 0-9.5-1.2-2.5-1.3-6.1-6.5-8.5-10l-.2-.3c-4.9-7-11-15.7-20.9-18.9-2.7-.9-5.5-1.3-8.5-1.3-7 0-13.7 2.3-19.6 4.4l-.3.1c-4.4 1.5-9 3-12 3-.3 0-.7 0-.9-.1-2.6-.4-7.1-3.8-11.1-6.7l-.5-.4c-7.1-5-15.7-11.3-26.1-11.3h-1.5c-9.5 0-17.4 6-24.4 11.2-4.1 3.1-8.3 6.2-11.7 7.4h-.6c-3.1 0-8-1.7-12.3-3.1l-.2-.1c-5.9-2-12.5-4.3-19.4-4.3-1.3 0-2.6.1-3.9.3-2.2.1-4.4.4-6.5 1.1-9 2.9-14.6 11-19.6 18.1-3.4 4.8-6.8 9.8-10.2 11.5l-.6.3c-2.4.4-5.4.4-6.8.4h-3.9c-1.5 0-3-.1-4.6-.1-4.7 0-9.8.3-14.7 1.7-3.9.7-7.6 2.1-10.9 4.5-7.6 5.5-10.4 14.9-13 23.2-1.7 5.6-3.5 11.4-6.2 14.2-.8.8-1.9 1.5-3.2 2.2-2 .7-4.2 1.4-6.3 2l-.5.1c-4 1.2-8.5 2.6-12.7 4.6-5.7 2.2-11.1 5.1-14.7 10.2-5.5 7.5-5.3 17.3-5.2 26 .1 5.9.2 12-1.6 15.5-1.7 3.4-6.7 6.9-11.5 10.2-7.1 5-15.2 10.6-18.2 19.6-2.9 8.8.3 18 3.1 26.2 1.6 4.6 3.2 9.2 3.4 13h-.1c-.6 3.7-4.2 8.5-7.7 13.2-5.3 7-11.3 15-11.3 24.5v2.4c0 9.5 6 17.4 11.2 24.4 3.5 4.6 7.1 9.4 7.7 13.2h.1c-.2 3.7-1.8 8.4-3.4 13-2.8 8.2-6 17.4-3.1 26.2 2.9 9 11 14.6 18.2 19.6 4.8 3.4 9.8 6.8 11.5 10.2 1.8 3.5 1.7 9.6 1.6 15.5-.1 8.7-.3 18.5 5.2 26 5.5 7.6 14.9 10.4 23.2 13 5.6 1.7 11.5 3.5 14.2 6.2 2.7 2.8 4.5 8.6 6.2 14.2 2.5 8.3 5.4 17.7 13 23.2 7.5 5.5 17.3 5.3 26 5.2 5.9-.1 12-.2 15.5 1.6 3.4 1.7 6.9 6.7 10.2 11.5 5 7.1 10.6 15.2 19.6 18.1 8.8 2.8 18-.3 26.2-3.1 5.6-1.9 11.4-4 15.4-3.3 3.7.6 8.5 4.2 13.1 7.7 7 5.3 14.9 11.2 24.4 11.2s17.4-6 24.4-11.2c4.6-3.5 9.4-7.1 13.2-7.7 3.9-.6 9.8 1.4 15.4 3.3 8.2 2.8 17.4 6 26.2 3.1 9-2.9 14.6-11 19.6-18.1 3.4-4.8 6.8-9.8 10.2-11.5 3.5-1.8 9.6-1.7 15.5-1.6 8.6.2 18.5.3 26-5.2 5.1-3.7 8-9.1 10.2-14.7 1.9-4 3.2-8.2 4.4-12.1l.2-.6c.6-2.1 1.4-4.5 2.2-6.7.7-1.3 1.4-2.4 2.2-3.3 2.7-2.7 8.6-4.5 14.2-6.2 8.3-2.5 17.7-5.4 23.2-13 2.4-3.3 3.7-7 4.4-10.8 1.9-6.2 1.8-12.9 1.7-18.9v-.4c-.1-3.7-.1-7.7.3-10.6.1-.3.2-.5.3-.7 1.8-3.4 6.7-6.9 11.5-10.2 7.1-5 15.2-10.6 18.1-19.6.7-2.2 1.1-4.4 1.1-6.6 1.1-8.1-1.6-16.1-4-23.2l-.1-.3c-1.3-3.7-2.6-7.6-3-10.7 1.2-3.4 4.3-7.6 7.3-11.7 5.3-7 11.2-14.9 11.2-24.4v-3.9c.1-10.4-6.3-18.9-11.4-25.8zm-30.3 59.5c-1.3 8.8 1.5 17.1 4.1 24.5 1.5 4.3 3.7 10.7 2.9 13.1-.8 2.5-6 6.1-10.2 9l-.4.3c-6.6 4.6-13.4 9.4-17.3 17.1-4.1 8-3.8 17.1-3.7 24.4.1 4.9.2 11.5-1.3 13.5-1.6 2.1-8 4.1-12.6 5.6-7.5 2.3-15.9 4.9-22 11s-8.5 14-10.9 21.6l-.2.7c-1.4 4.5-3.3 10.7-5.4 12.1-1.9 1.4-7.9 1.4-9.8 1.4h-3.7l-4.9-.1c-6 0-13.1.4-19.6 3.7-7.6 3.9-12.4 10.7-17 17.3l-.1.2c-2.6 3.8-6.6 9.5-9.2 10.4-.2.1-.6.1-1.2.1-2.8 0-7.1-1.4-11.3-2.8l-.6-.2c-6-2.1-12.8-4.4-19.9-4.4-1.6 0-3.1.1-4.6.3-8.6 1.3-15.5 6.6-21.6 11.2l-.2.2c-4.1 3.1-9.2 6.9-11.9 6.9-2.7 0-7.8-3.8-11.9-6.9l-.2-.2c-6.1-4.6-13-9.9-21.6-11.2-1.5-.2-3-.3-4.6-.3-7.1 0-13.9 2.4-19.9 4.4l-.4.2c-4.2 1.5-8.6 3-11.4 3-.7 0-1-.1-1.3-.2-2.5-.8-6.1-6-9-10.2l-.3-.4c-4.6-6.6-9.4-13.4-17.1-17.3-6.5-3.3-13.5-3.7-19.5-3.7-1.7 0-3.3 0-4.9.1h-3.8c-2 0-7.9 0-9.8-1.3-2.1-1.6-4.1-8-5.6-12.6-2.3-7.5-4.9-15.9-11-22s-14-8.5-21.6-10.9l-.8-.2c-4.5-1.4-10.7-3.3-12.1-5.4-1.5-2.1-1.4-8.7-1.3-13.6v-.6c.1-8 .2-16.2-3.7-23.9-3.9-7.6-10.7-12.4-17.3-17.1l-.2-.1c-3.8-2.6-9.5-6.6-10.4-9.2-.7-2.3 1.3-8.2 2.7-12.5l.2-.6c2.5-7.3 5.4-15.7 4.1-24.5-1.3-8.6-6.6-15.5-11.2-21.6-2.2-2.9-5.9-7.7-6.8-10.9.9-3 4-7.2 6.8-10.9 4.6-6.1 9.9-13 11.2-21.6 1.3-8.8-1.5-17.1-4.1-24.5-1.5-4.3-3.7-10.8-2.9-13.1.8-2.5 6-6.1 10.2-9l.4-.3c6.6-4.6 13.4-9.4 17.3-17.1 4.1-8 3.8-17.1 3.7-24.4-.1-4.9-.2-11.5 1.3-13.5 1.6-2.1 8-4.1 12.6-5.6 7.5-2.3 15.9-4.9 22-11s8.5-14 10.9-21.6l.2-.7c1.4-4.5 3.3-10.7 5.4-12.1 1.9-1.4 7.9-1.4 9.8-1.4h8.2c6.6 0 13.6-.4 20-3.7 7.6-3.9 12.4-10.7 17.1-17.3l.1-.2c2.6-3.8 6.6-9.5 9.2-10.4.2-.1.6-.1 1.2-.1 2.8 0 7.1 1.4 11.3 2.8l.6.2c6 2.1 12.8 4.4 19.9 4.4 1.6 0 3.1-.1 4.6-.3 8.6-1.3 15.5-6.6 21.6-11.2l.2-.2c4.1-3.1 9.2-6.9 11.9-6.9 2.7 0 7.8 3.8 11.9 6.9l.2.2c6.1 4.6 13 9.9 21.6 11.2 1.5.2 3 .3 4.6.3 7.1 0 13.9-2.4 19.9-4.4l.4-.2c4.2-1.5 8.6-3 11.4-3 .7 0 1 .1 1.3.2 2.5.8 6.1 6 9 10.2l.3.4c4.6 6.6 9.4 13.4 17.1 17.3 6.5 3.3 13.5 3.7 19.5 3.7 1.7 0 3.3 0 4.9-.1h3.8c2 0 7.9 0 9.8 1.3 2.1 1.6 4.1 8 5.6 12.6 2.3 7.5 4.9 15.9 11 22s14 8.5 21.6 10.9l.8.2c4.5 1.4 10.7 3.3 12.1 5.4 1.5 2.1 1.4 8.7 1.3 13.6v.6c-.1 8-.2 16.2 3.7 23.9 3.9 7.6 10.7 12.4 17.3 17.1l.2.1c3.8 2.6 9.5 6.6 10.4 9.2.7 2.3-1.3 8.2-2.7 12.5l-.2.6c-2.5 7.3-5.4 15.7-4.1 24.5 1.3 8.6 6.6 15.5 11.2 21.6 2.2 2.9 5.9 7.7 6.8 10.9-.9 3-4 7.2-6.8 10.9-4.7 6.2-9.9 13.1-11.3 21.7zM455.1 227.7c-6.8-46.8-30.1-89.8-65.9-121.2-36.4-32-83.2-49.7-131.7-49.7-43.2 0-85.1 14-119.5 39.8-.6.4-1.1.8-1.6 1.2l-.1.1c-41.8 31.3-71 78.6-78.4 132.7h-.3c-1.1 8.5-1.6 16.9-1.6 25v2.4c0 8.1.5 16.5 1.6 25h.3c13.4 97.3 97.1 172.6 198.1 172.6 65.4 0 123.5-31.5 160-80.2 20.6-26.9 34.1-58.7 39-92.5.3-.4.4-.9.5-1.5 1.1-8.2 1.6-16.6 1.6-25v-2.3c0-8.4-.5-16.8-1.6-25 0-.5-.2-1-.4-1.4zm-21.4 27.6c-.7 96.5-79.7 175-176.2 175s-175.5-78.5-176.2-175c.7-96.5 79.7-175 176.2-175s175.5 78.5 176.2 175z"/></svg>