<svg xmlns="http://www.w3.org/2000/svg" width="512" height="512" viewBox="0 0 512 512"><style type="text/css">.st0{fill:#1976D2;}</style><path class="st0" d="M486 349.1c-.4-1-.2-2.1.5-2.9 10.1-12.8 14.9-26.5 14.2-40.5-.6-15.5-7.6-27.7-13.3-35.1-.6-.8-.8-2-.4-2.9 4.5-11.2 12.2-39.7-12.8-62.5-14.6-13.3-38.6-20.1-71.3-20.1-4 0-8.2.1-12.5.3-27.1 1.2-49.7 6.1-52.2 6.7-.1 0-.3.1-.5.1-4.8.9-10.2 2-16.5 3.4-.2 0-.4.1-.7.1-.6 0-1.3-.2-1.8-.6-.7-.5-1.1-1.3-1.2-2.2-.4-7 .7-24.5 13.5-63.3 14.7-44.7 13.9-78.7-2.4-101.2-16.8-23.6-44-25.4-51.9-25.4-7.2 0-13.7 3-18.4 8.4-11.4 13.2-9.6 38.5-8.3 48.7.1.5 0 1-.2 1.4-1.9 5.2-47.6 126.6-88.2 158l-.2.1c-.4.3-.8.7-1.2 1.1-8.2 8.7-15.1 19-20.4 30.7-.3.8-1 1.3-1.8 1.6-.3.1-.6.2-1 .2-.5 0-1-.1-1.4-.4-6.1-3.3-12.8-5-19.8-5h-65.3c-22.9 0-41.5 18.6-41.5 41.5v174c0 22.9 18.6 41.5 41.5 41.5h65.3c8.6 0 16.9-2.6 24-7.6.5-.4 1.1-.5 1.7-.5h.4l25.2 3c.6.1 60.1 7.9 126.7 7.9 5.3 0 10.5-.1 15.5-.2h.3c13.3 1 24.9 1.5 35.6 1.5 19 0 35.5-1.5 49.2-4.4 31.9-6.8 53.6-20.2 64.5-39.8 8.2-14.8 8.3-29.4 6.9-39.1-.1-1 .2-2 1-2.6 20.5-18.6 24-39.2 23.3-53.2-.4-8.9-2.5-16.2-4.1-20.7zm-351.5 114.1c0 10.3-8.4 18.6-18.6 18.6h-64.6c-.3.1-.5.1-.8.1-10.3 0-18.6-8.4-18.6-18.6v-174.1c0-10.3 8.4-18.6 18.6-18.6h65.3c10.3 0 18.6 8.4 18.6 18.6v174zm329-125.6c-3.6 3.8-4.2 9.4-1.5 13.8l.2.3v.1c1.7 3.3 4.7 10.2 5.1 18.9.8 15.1-6.4 28.4-21.3 39.6-4 3.1-5.6 8.4-3.9 13.1.1.3.2.6.2.9 0-.3-.1-.6-.1-.6 1.1 3.7 4 17-3.2 29.8-7.6 13.7-24.2 23.3-49.3 28.7-12 2.6-26.9 3.9-44.1 3.9-10.6 0-22.3-.5-34.7-1.5h-1.3c-5.1.1-10.5.2-15.9.2-61.8 0-119.6-7.3-123.5-7.8h-.3l-10.8-1.3c-.8-.1-1.6-.5-2.1-1.2s-.7-1.5-.5-2.4c.6-2.8.9-5.7.9-8.8v-174.1c0-4.1-.6-8.3-1.9-12.4-.2-.5-.2-1.1 0-1.7 2.2-8.3 7.9-24.3 20.6-38l.3-.3c46.1-36.6 91.2-157.3 96.2-171 .7-1.7.8-3.7.5-5.7-1.7-11.5-1.5-27.5 1.8-33 .5-.9 1.5-1.5 2.6-1.5h.1c6.5.1 22.6 1.9 32.6 15.7 11.5 15.9 11.2 43.8-.9 80.5-17.3 52.5-19.2 81-6.1 92.6 4.5 4 9.6 4.8 13 4.8 2.5 0 5-.4 7.3-1.3l.3-.1c7.2-1.6 13.3-2.9 18.7-3.8l1.3-.3c17.9-3.9 39.6-6.2 58-6.2 18.9 0 44.2 2.4 56.9 14 19.1 17.4 5.7 40.3 4.1 42.9-3.1 4.7-2.2 10.9 2.1 14.7l.1.1c1.3 1.2 12.2 12.2 12.8 27 .4 10.7-4.4 21.2-14.3 31.4z"/></svg>