<svg xmlns="http://www.w3.org/2000/svg" width="512" height="512" viewBox="0 0 512 512"><style type="text/css">.st0{fill:#1976D2;}</style><path class="st0" d="M121.6 237.3c-10.6 0-19.2 8.6-19.2 19.2s8.6 19.2 19.2 19.2 19.2-8.6 19.2-19.2-8.6-19.2-19.2-19.2zM509.3 257.2c-2.7-3-9.4-6-15-7.9-.3-1.7-.8-3.2-1.4-4.7-2.9-6.9-8.5-11.2-15.8-12.1-1.2-.2-2.5-.2-3.9-.2-7.5 0-16 2.5-25.3 7.3-8.7-28.1-25-54.4-47.3-76.1-22.6-22.1-51-39.1-82.2-49.4 4.3-10 6.5-20.6 6.5-31.4 0-44.6-36.3-80.9-80.9-80.9-44.6 0-80.9 36.3-80.9 80.9 0 11.3 2.3 22.2 7 32.6-21.3 7.4-40.8 17.5-57.8 30-9.9-4.9-20.4-7.4-30.4-7.4-11.3 0-21.6 3.2-29.7 9.3l-7.8 5.8c-.6.5-1.1 1.2-1.2 2-.1.8.1 1.6.6 2.2l24.4 32.7c-11.8 16.8-20.5 35-25.8 54.3h-8.6c-18.3 0-33.2 14.9-33.2 33.2v86.9c0 18.3 14.9 33.2 33.2 33.2h41.6c12.3 15.3 27.1 28.8 44.1 40.1v39c0 14 10.3 25.3 22.9 25.3h37.1c12.7 0 22.9-11.4 22.9-25.3v-5.3c14.3 2.7 28.7 4.1 43 4.1 12.6 0 25.4-1.1 38-3.2v5.5c0 14 10.3 25.3 22.9 25.3h37.1c12.7 0 22.9-11.4 22.9-25.3v-36.3c55.8-34.9 89-91.8 89-152.5 0-10.8-1.2-22.1-3.6-33.5 3.1-1.8 7.4-4 11.8-5.5-4.2 4.3-6 10.7-4.4 16.5 1.9 6.7 7.6 11.3 15.8 12.5.8.1 1.4.2 2.1.2 4.6 0 8.9-2.3 12.1-6.4 1.6-2 2.9-4.4 3.8-7 3 1.2 4.3 2 4.6 2.3 1.5 1.6 3.6 2.6 5.8 2.6 2 0 3.8-.7 5.3-2.1 3.4-3.1 3.6-8.1.7-11.3zm-167.3 169c-.9.5-1.5 1.5-1.5 2.6l.5 48.7-32 .1v-33.2c0-.9-.4-1.8-1.1-2.3-.5-.4-1.2-.7-1.9-.7-.2 0-.5 0-.7.1l-11.9 2.8c-16 3.7-32.1 5.6-48 5.6-17.5 0-35.1-2.3-52.4-6.8l-12.2-3.2c-.3-.1-.5-.1-.8-.1-.7 0-1.3.2-1.8.6-.7.6-1.2 1.4-1.2 2.4v33.7l-32 .1v-41.8l1.7-7.8c.3-1.2-.3-2.5-1.4-3.2l-5.8-3.6c-19-11.8-35-26.3-47.6-43.1l-2.9-3.9c-.6-.8-1.5-1.2-2.4-1.2h-52.8c-4.3 0-7.7-3.5-7.7-7.7v-86.9c0-4.3 3.5-7.7 7.7-7.7h26.4c1.4 0 2.6-1 2.9-2.4l1.6-7.7c4.7-22.3 14.6-43.1 29.3-61.8l4.6-5.9c.8-1.1.9-2.6 0-3.6l-18.7-25h1.6c7.9 0 16.7 2.9 25 8.1l5.9 3.7c.5.3 1 .5 1.6.5.7 0 1.3-.2 1.9-.7l5.4-4.3c18.1-14.5 39.8-26 63-33.2 1.4 1.5 2.8 3 4.2 4.3l.9.8.4.4c1.2 1.1 2.5 2.2 3.8 3.2-11 3.2-21.5 7.3-31.3 12.2-3 1.5-5.3 4.2-6.3 7.4-1.1 3.2-.8 6.7.8 9.7 2.2 4.3 6.5 7 11.3 7 2 0 4-.5 5.8-1.4 21.7-11 46.6-16.9 71.9-16.9 26.7 0 52.7 6.4 75.3 18.6 1.8 1 3.9 1.5 6.1 1.5 4.7 0 9-2.6 11.2-6.7 1.6-3 2-6.4 1-9.7s-3.2-5.9-6.1-7.6c-11.8-6.4-24.5-11.4-37.8-15 1-.8 2-1.7 3-2.6l.6-.6 1.2-1.1c1.4-1.4 2.8-2.9 4.2-4.4 74 21.8 125.6 84.3 125.6 152.6 0 54.2-31 104.4-82.9 134.4l-5.2 2.7zm-51.9-312.7l-.4.5c-.1.2-.2.3-.4.5l-.4.6c-1.1 1.5-2.2 2.9-3.4 4.3-.2.2-.4.4-.6.7l-.3.4c-1.2 1.3-2.4 2.5-3.7 3.6l-.8.8c-3.3 2.8-6.8 5.2-10.5 7.1l-.4.2c-1.6.8-3.4 1.6-5.2 2.3l-1.2.5c-1.5.5-3 1-4.7 1.5l-.5.1c-.3.1-.6.2-1 .2-1.4.3-2.9.6-4.8.9l-.7.1-.8.1c-2.3.3-4.4.4-6.3.4-2 0-4.1-.1-6.2-.4l-1.4-.2c-1.8-.2-3.4-.5-4.9-.9l-1.2-.3c-2-.5-3.6-1-5.2-1.6l-.7-.3c-7.9-3-15.2-7.9-20.9-14l-.5-.6c-1.3-1.4-2.5-2.9-3.7-4.5l-.9-1.2-.5-.7c-6.1-9.1-9.4-19.8-9.4-30.8 0-30.6 24.9-55.4 55.4-55.4 30.6 0 55.4 24.9 55.4 55.4.2 10.9-3.1 21.6-9.2 30.7zm184.4 147.8h.8c.7 0 1.5.1 2.5.2-.3.5-.5 1-.8 1.4-.1.1-.2.2-.2.3-1.5-.3-2.2-.9-2.3-1.1-.1-.3-.1-.5 0-.8z"/></svg>