<svg xmlns="http://www.w3.org/2000/svg" viewBox="0 0 512 512"><style type="text/css">.st0{fill:#1976D2;}</style><path class="st0" d="M44.2 413.7l25.3-25.3c4.8-4.8 4.8-12.6 0-17.4-4.8-4.8-12.6-4.8-17.4 0l-25.3 25.3c-4.8 4.8-4.8 12.6 0 17.4 2.4 2.4 5.5 3.6 8.7 3.6 3.2 0 6.3-1.2 8.7-3.6zm61-6.9c-4.8-4.8-12.6-4.8-17.4 0l-84.2 84.2c-4.8 4.8-4.8 12.6 0 17.4 2.4 2.4 5.5 3.6 8.7 3.6 3.1 0 6.3-1.2 8.7-3.6l84.2-84.2c4.8-4.8 4.8-12.6 0-17.4zm18.3 35.7l-42.1 42.1c-4.8 4.8-4.8 12.6 0 17.4 2.4 2.4 5.5 3.6 8.7 3.6 3.1 0 6.3-1.2 8.7-3.6l42.1-42.1c4.8-4.8 4.8-12.6 0-17.4-4.8-4.8-12.6-4.8-17.4 0zm142.1-303.3c-14.3 14.3-22.2 33.4-22.2 53.6 0 20.3 7.9 39.3 22.2 53.6 14.3 14.3 33.4 22.2 53.6 22.2 20.3 0 39.3-7.9 53.6-22.2 29.6-29.6 29.6-77.7 0-107.2-14.3-14.3-33.4-22.2-53.6-22.2-20.3 0-39.3 7.9-53.6 22.2zm89.8 89.8c-9.7 9.7-22.5 15-36.2 15-13.7 0-26.5-5.3-36.2-15-9.7-9.7-15-22.5-15-36.2s5.3-26.5 15-36.2c9.7-9.7 22.5-15 36.2-15 13.7 0 26.5 5.3 36.2 15 20 20 20 52.5 0 72.4zm148-211.7c-1.1-4.3-4.5-7.6-8.7-8.7-42-11.3-86.5-11.5-128.7-.6-6.6 1.7-13 3.7-19.4 5.9-.6.2-1.1.3-1.6.6-35.1 12.5-67.2 32.6-93.8 59.2l-.2.2-.3.3-.3.3-37.7 43.8c-59.3-.7-116.8 22.8-158.8 64.7-13.7 13.7-25.4 29-35 45.5-1.9 3.3-2.2 7.4-.7 10.9 1.5 3.6 4.6 6.2 8.3 7.1l68.3 17.4-13.4 36.3c-6.6 17.9-2.1 38.3 11.4 51.8l67.1 67.1c9.4 9.4 22 14.4 34.9 14.4 5.7 0 11.4-1 16.9-3l36.3-13.4 17.4 68.3c.9 3.7 3.6 6.8 7.1 8.3 1.5.6 3.2 1 4.8 1 2.1 0 4.3-.6 6.2-1.7 16.5-9.6 31.8-21.4 45.5-35 42-42 65.4-99.6 64.7-158.8l43.8-37.7.3-.3c.1-.1.2-.2.4-.3l.2-.2c26.5-26.6 46.7-58.7 59.2-93.8l.6-1.6c2.2-6.4 4.2-12.9 5.9-19.4 10.8-42.1 10.6-86.6-.7-128.6zm-454.5 209.8c6.6-9.4 14-18.3 22.3-26.5 32.2-32.2 74.6-52 119.4-56.6l-84 97.8-57.7-14.7zm55.5 81.9l11.4-31.1 15.9 15.9-24 38.4c-4.9-6.7-6.2-15.4-3.3-23.2zm21 41.2l24.1-38.6 16.7 16.7-31.4 31.4-9.4-9.5zm26.9 26.9l31.4-31.4 16.7 16.7-38.6 24.1-9.5-9.4zm50.7 30.5c-7.8 2.9-16.6 1.5-23.1-3.3l38.4-24 15.9 15.9-31.2 11.4zm108.4 33.3c-8.2 8.2-17.1 15.7-26.5 22.3l-14.7-57.7 97.8-84c-4.5 44.8-24.4 87.2-56.6 119.4zm109.5-197.4l-163.9 140.8-129.3-129.3 99.5-115.8.3-.3 41.1-47.8c22.4-22.3 49.1-39.6 78.2-51l125.2 125.2c-11.4 29.2-28.8 55.8-51.1 78.2zm59.5-104.5l-107.4-107.4c35.5-9 72.8-9.4 108.4-1 8.3 35.6 8 72.9-1 108.4z"/></svg>