<?xml version="1.0" standalone="no"?>
<!DOCTYPE svg PUBLIC "-//W3C//DTD SVG 20010904//EN"
 "http://www.w3.org/TR/2001/REC-SVG-20010904/DTD/svg10.dtd">
<svg version="1.0" xmlns="http://www.w3.org/2000/svg"
 width="380.000000pt" height="380.000000pt" viewBox="0 0 380.000000 380.000000"
 preserveAspectRatio="xMidYMid meet">
<metadata>
Created by potrace 1.11, written by Peter Selinger 2001-2013
</metadata>
<g transform="translate(0.000000,380.000000) scale(0.100000,-0.100000)"
fill="#000000" stroke="none">
<path d="M1853 3791 c-44 -11 -33 -5 -813 -456 -388 -224 -718 -419 -733 -434
-16 -14 -39 -44 -50 -66 l-22 -40 0 -895 0 -895 22 -40 c11 -22 34 -52 50 -67
23 -22 1345 -793 1481 -864 57 -30 118 -38 173 -24 24 7 373 201 774 433 784
452 809 468 834 558 9 33 11 252 9 919 -3 875 -3 875 -25 915 -11 22 -34 52
-50 67 -25 23 -1367 805 -1483 864 -52 26 -121 36 -167 25z m671 -2511 c102
-26 225 -88 331 -167 47 -36 84 -67 82 -69 -2 -3 -70 2 -150 11 -182 19 -285
19 -407 1 -113 -17 -192 -45 -395 -136 -341 -154 -531 -188 -725 -128 -82 25
-127 48 -215 109 -70 48 -157 129 -140 129 6 0 46 -7 90 -16 50 -11 131 -17
215 -17 181 0 217 10 613 182 260 113 513 149 701 101z m160 -415 c69 -18 176
-73 226 -116 l35 -30 -80 8 c-213 21 -310 5 -512 -86 -153 -69 -212 -85 -318
-86 -85 0 -96 2 -166 37 -42 21 -96 56 -120 78 -44 41 -44 41 -14 36 73 -14
204 -17 258 -7 33 6 97 26 143 46 46 19 121 50 167 69 148 62 274 79 381 51z"/>
</g>
</svg>
