<?xml version="1.0" encoding="utf-8"?>
<!-- Generator: Adobe Illustrator 20.1.0, SVG Export Plug-In . SVG Version: 6.00 Build 0)  -->
<svg version="1.1" id="Слой_1" xmlns="http://www.w3.org/2000/svg" xmlns:xlink="http://www.w3.org/1999/xlink" x="0px" y="0px"
	 width="1248px" height="379.1px" viewBox="0 0 1248 379.1" style="enable-background:new 0 0 1248 379.1;" xml:space="preserve">
<style type="text/css">
	.st0{fill:#00B7F7;}
	.st1{fill:#0098F0;}
	.st2{fill:#FFFFFF;}
	.st3{fill:none;stroke:#414B5B;stroke-miterlimit:10;}
	.st4{fill:#F4A178;}
	.st5{fill:#414B5B;}
</style>
<g>
	<path class="st0" d="M354.7,175.5c0-16.3,12.5-28.8,37.5-28.8c21.9,0,34.4,12.5,34.4,21.3c0,6.9-4.4,11.3-13.8,11.3
		c-10,0-11.3-8.8-20.6-8.8c-6.3,0-8.8,2.5-8.8,5c0,8.8,46.3,5,46.3,33.7c0,16.3-13.8,30-41.3,30c-23.1,0-35.6-12.5-35.6-21.3
		c0-6.9,4.4-11.3,13.8-11.3c10,0,11.3,8.8,21.9,8.8c9.4,0,12.5-3.1,12.5-6.3C401,201.7,354.7,205.5,354.7,175.5z"/>
	<path class="st0" d="M460.4,225.5c-3.1,7.5-8.1,12.5-15,12.5c-8.1,0-13.8-5.6-13.8-12.5c0-3.8,3.1-11.3,3.1-11.3l20-52.5
		c3.8-9.4,9.4-15,21.9-15s18.3,5.6,21.9,15l20,52.5c0,0,3.1,7.5,3.1,11.3c0,6.9-5.6,12.5-13.8,12.5c-6.9,0-11.9-5-15-12.5l-3.1-7.5
		h-26.3L460.4,225.5z M484.1,195.5l-6.9-18.7H476l-6.9,18.7H484.1z"/>
	<path class="st0" d="M557.2,174.2v10H576c8.8,0,13.8,5,13.8,12.5c0,7.5-5,12.5-13.8,12.5h-18.7v16.3c0,7.5-5,12.5-13.8,12.5
		s-13.8-5-13.8-12.5v-63.7c0-7.5,5-12.5,13.8-12.5H591c8.8,0,13.8,5,13.8,12.5s-5,12.5-13.8,12.5H557.2z"/>
	<path class="st0" d="M640.4,174.2v7.5h23.8c7.5,0,12.5,5,12.5,11.2c0,6.3-5,11.3-12.5,11.3h-23.8v7.5h35c8.8,0,13.8,5,13.8,12.5
		s-5,12.5-13.8,12.5h-48.8c-8.8,0-13.8-5-13.8-12.5v-62.5c0-7.5,5-12.5,13.8-12.5h47.5c8.8,0,13.8,5,13.8,12.5s-5,12.5-13.8,12.5
		H640.4z"/>
	<path class="st0" d="M704.1,174.2c-8.8,0-13.8-5-13.8-12.5s5-12.5,13.8-12.5h55c8.8,0,13.8,5,13.8,12.5s-5,12.5-13.8,12.5h-13.8
		v51.2c0,7.5-5,12.5-13.8,12.5s-13.8-5-13.8-12.5v-51.2H704.1z"/>
	<path class="st0" d="M816,178l16.3-23.8c0,0,4.4-6.3,11.3-6.3c9.4,0,14.4,5,14.4,12.5c0,5-5,11.3-5,11.3l-23.8,33.7v20
		c0,7.5-5,12.5-13.8,12.5s-13.8-5-13.8-12.5v-20l-23.8-33.7c0,0-5-6.3-5-11.3c0-7.5,5-12.5,14.4-12.5c6.9,0,11.3,6.3,11.3,6.3
		l16.3,23.8H816z"/>
	<path class="st0" d="M928.5,210.5v15c0,7.5-5,12.5-13.8,12.5s-13.8-5-13.8-12.5v-63.7c0-7.5,5-12.5,13.8-12.5h25
		c25,0,38.8,13.8,38.8,30.6c0,16.9-13.8,30.6-38.8,30.6H928.5z M939.7,188c6.3,0,10-3.8,10-8.1s-3.8-8.1-10-8.1h-11.3V188H939.7z"/>
	<path class="st0" d="M1069.7,201.7c0,21.3-16.3,37.5-41.9,37.5S986,223,986,201.7v-17.5c0-21.3,16.3-37.5,41.9-37.5
		s41.9,16.3,41.9,37.5V201.7z M1041.6,184.2c0-10-6.3-16.3-13.8-16.3s-13.8,6.3-13.8,16.3v17.5c0,10,6.3,16.3,13.8,16.3
		s13.8-6.3,13.8-16.3V184.2z"/>
	<path class="st0" d="M1163.5,201.7c0,21.3-16.3,37.5-41.9,37.5s-41.9-16.3-41.9-37.5v-17.5c0-21.3,16.3-37.5,41.9-37.5
		s41.9,16.3,41.9,37.5V201.7z M1135.4,184.2c0-10-6.3-16.3-13.8-16.3s-13.8,6.3-13.8,16.3v17.5c0,10,6.3,16.3,13.8,16.3
		s13.8-6.3,13.8-16.3V184.2z"/>
	<path class="st0" d="M1234.1,211.7c8.8,0,13.8,5,13.8,12.5s-5,12.5-13.8,12.5h-43.8c-8.8,0-13.8-5-13.8-12.5v-63.7
		c0-7.5,5-12.5,13.8-12.5s13.8,5,13.8,12.5v51.2H1234.1z"/>
</g>
<g>
	<path class="st1" d="M322.6,293.4l-142.7,82.4c-7.7,4.4-17.1,4.4-24.8,0L12.4,293.4C4.7,289,0,280.8,0,272V107.2
		c0-8.8,4.7-17,12.4-21.4L155.1,3.3c7.7-4.4,17.1-4.4,24.8,0l142.7,82.4c7.7,4.4,12.4,12.6,12.4,21.4V272
		C335,280.8,330.2,289,322.6,293.4z"/>
	<path class="st0" d="M167.5,365c-1.9,0-3.7-0.5-5.3-1.4L19.4,281.2c-3.3-1.9-5.3-5.4-5.3-9.2V107.2c0-3.8,2-7.3,5.3-9.2l142.7-82.4
		c1.6-0.9,3.5-1.4,5.3-1.4s3.7,0.5,5.3,1.4L315.4,98c3.3,1.9,5.3,5.4,5.3,9.2V272c0,3.8-2,7.3-5.3,9.2l-142.7,82.4
		C171.2,364.5,169.3,365,167.5,365z"/>
	<path class="st1" d="M258.5,126.3l-0.3,0.2c9.5,9,13.4,21.7,14.1,30c0.3,3.9-2.6,7.2-6.4,7.5h-0.6c-3.6,0-6.7-2.8-7-6.4
		c0-0.2-0.7-7.6-4.9-14.7c-5.3-9-13.3-13.3-24.6-13.3s-19.3,4.4-24.6,13.3c-3.8,6.5-4.7,13.2-4.9,14.5v85.5
		c-4.7,0.6-9.3,1.5-13.7,2.5c-0.2-0.6-0.3-1.2-0.3-1.9v-87.1c0.5-5.9,2.5-13.9,7.1-21.3l-4.9-5.4c-3.2,4.9-5.5,10-6.9,14.9
		c-0.3-0.6-0.6-1.2-1-1.9c-5.3-9-13.3-13.3-24.6-13.3s-19.3,4.4-24.6,13.3c-3.8,6.5-4.7,13.2-4.9,14.5v110.9
		c-4.1,1.5-8.4,2.7-12.7,3.7l7.7,5.3l-10.2,5l-18,1.3L71.6,279l-5.6-3l3.4,3.5l73.1,73.1v4.2l7.1,7.5l-7.1,1.6v2.6l12.6,7.3
		c7.7,4.4,17.1,4.4,24.8,0l142.7-82.4c7.7-4.4,12.4-12.6,12.4-21.4v-69.2L258.5,126.3L258.5,126.3z"/>
	<path class="st2" d="M271.7,276c0,0-13.2-13.8-33.3-21.7c-10-3.9-21.7-6.4-34.3-4.9c-12.3,1.4-22.7,3.9-31.1,6.7
		c-17.4,5.7-37,18-59.3,22.9c-12.5,2.8-28.8,1.6-47.7-3c0,0,28.2,33.8,65.8,26.3c0,0,15.7-1.3,44.5-15S219.4,268.8,271.7,276z
		 M271.7,308c0,0-8-8.4-20.2-13.2c-6.1-2.4-13.2-3.9-20.8-3c-7.5,0.9-13.7,2.4-18.8,4.1c-10.5,3.5-23.1,12.2-35.9,13.9
		c-7.7,1-17.4,1-28.9-1.8c0,0,17.1,20.6,39.8,16c0,0,9.5-0.8,26.9-9.1S240,303.6,271.7,308z"/>
	<path class="st3" d="M265.3,157"/>
	<g>
		<path class="st4" d="M120.5,211.2h67v7.8h-67V211.2z M120.5,189.6h67v7.8h-67V189.6z M120.5,168.3h67v7.8h-67V168.3z M120.5,232.8
			h67v7.8h-67V232.8z"/>
	</g>
	<path class="st5" d="M199.3,242.9v-85.5c0.2-1.3,1.1-8,4.9-14.5c5.3-9,13.3-13.3,24.6-13.3s19.3,4.4,24.6,13.3
		c4.2,7.1,4.9,14.5,4.9,14.7c0.3,3.7,3.4,6.4,7,6.4h0.6c3.9-0.3,6.7-3.7,6.4-7.5c-1.1-14.2-11.6-40.9-43.5-40.9
		s-42.3,26.8-43.5,40.9v87.1c0,0.6,0.1,1.3,0.3,1.9C190.1,244.4,194.7,243.6,199.3,242.9L199.3,242.9z M180.6,144.7
		c1.5-4.9,3.7-10,6.9-14.9c-6.8-8.1-17.2-14.3-32.5-14.3c-31.8,0-42.3,26.8-43.5,40.9v111.5c0,1.5,0.5,2.9,1.3,4
		c4.3-1,8.5-2.2,12.7-3.7V157.4c0.2-1.3,1.1-8,4.9-14.5c5.3-9,13.3-13.3,24.6-13.3s19.3,4.4,24.6,13.3L180.6,144.7L180.6,144.7z"/>
</g>
</svg>
